<svg width="16" height="20" viewBox="0 0 16 20" fill="none" xmlns="http://www.w3.org/2000/svg">
<path fill-rule="evenodd" clip-rule="evenodd" d="M9.00098 1C9.00098 0.447715 8.55326 0 8.00098 0C7.44869 0 7.00098 0.447715 7.00098 1V1.07975C4.42613 1.49409 2.33067 3.48328 1.83708 6.11578L0.462452 13.4471C0.116282 15.2934 1.53266 17 3.41107 17H4.12699C4.57104 18.7252 6.13714 20 8.00098 20C9.86482 20 11.4309 18.7252 11.875 17H12.5914C14.4698 17 15.8861 15.2934 15.54 13.4471L14.1654 6.11578C13.6717 3.48312 11.576 1.49384 9.00098 1.07967V1ZM8.00098 18C8.74126 18 9.3876 17.5978 9.73341 17H6.26854C6.61435 17.5978 7.26069 18 8.00098 18ZM12.5914 15H3.41107C2.78493 15 2.31281 14.4311 2.4282 13.8157L3.80283 6.48436C4.18164 4.46403 5.94568 3 8.00122 3C10.0568 3 11.8208 4.46403 12.1996 6.48435L13.5742 13.8157C13.6896 14.4311 13.2175 15 12.5914 15Z" fill="#686868"/>
</svg>
