<svg width="28" height="28" viewBox="0 0 28 28" fill="none" xmlns="http://www.w3.org/2000/svg">
<path d="M20.1427 10.0187C20.5215 9.38728 20.3168 8.56826 19.6853 8.1894C19.0539 7.81053 18.2349 8.01529 17.856 8.64673L12.7346 17.1824L9.94216 14.3899C9.42146 13.8692 8.57724 13.8692 8.05654 14.3899C7.53584 14.9106 7.53584 15.7548 8.05654 16.2755L12.0565 20.2755C12.3469 20.5659 12.7548 20.7062 13.1623 20.6561C13.5698 20.6059 13.9314 20.3708 14.1427 20.0187L20.1427 10.0187Z" fill="#222222"/>
<path fill-rule="evenodd" clip-rule="evenodd" d="M27.3327 13.9993C27.3327 21.3631 21.3631 27.3327 13.9993 27.3327C6.63555 27.3327 0.666016 21.3631 0.666016 13.9993C0.666016 6.63555 6.63555 0.666016 13.9993 0.666016C21.3631 0.666016 27.3327 6.63555 27.3327 13.9993ZM24.666 13.9993C24.666 19.8904 19.8904 24.666 13.9993 24.666C8.10831 24.666 3.33268 19.8904 3.33268 13.9993C3.33268 8.10831 8.10831 3.33268 13.9993 3.33268C19.8904 3.33268 24.666 8.10831 24.666 13.9993Z" fill="#222222"/>
</svg>
