<svg width="20" height="20" viewBox="0 0 20 20" fill="none" xmlns="http://www.w3.org/2000/svg">
<path fill-rule="evenodd" clip-rule="evenodd" d="M10.001 6.99988C8.34412 6.99988 7.00098 8.34302 7.00098 9.99988C7.00098 11.6567 8.34412 12.9999 10.001 12.9999C11.6578 12.9999 13.001 11.6567 13.001 9.99988C13.001 8.34302 11.6578 6.99988 10.001 6.99988ZM9.00098 9.99988C9.00098 9.44759 9.44869 8.99988 10.001 8.99988C10.5533 8.99988 11.001 9.44759 11.001 9.99988C11.001 10.5522 10.5533 10.9999 10.001 10.9999C9.44869 10.9999 9.00098 10.5522 9.00098 9.99988Z" fill="#686868"/>
<path fill-rule="evenodd" clip-rule="evenodd" d="M12.677 0.362251C11.5936 0.0619946 10.5994 0.763455 10.3267 1.71803L10.2462 1.99985L9.75477 1.99985L9.67429 1.71817C9.40154 0.763553 8.40729 0.0620832 7.32387 0.362424C6.53141 0.582108 5.77866 0.89678 5.07875 1.29321C4.10089 1.84709 3.89335 3.04584 4.3757 3.91406L4.51757 4.16943L4.1701 4.5169L3.9148 4.37507C3.04657 3.89272 1.84777 4.10027 1.29392 5.07819C0.897535 5.77807 0.582903 6.53079 0.36325 7.32322C0.0629414 8.40663 0.764409 9.40085 1.71901 9.67359L2.00096 9.75415L2.00096 10.2455L1.71901 10.3261C0.764407 10.5988 0.0629402 11.5931 0.363247 12.6765C0.5829 13.4689 0.897531 14.2216 1.29392 14.9215C1.84777 15.8994 3.04656 16.107 3.9148 15.6246L4.1701 15.4828L4.51757 15.8303L4.37569 16.0856C3.89335 16.9539 4.10088 18.1526 5.07875 18.7065C5.77863 19.1029 6.53134 19.4176 7.32377 19.6372C8.4072 19.9376 9.40146 19.2361 9.67421 18.2815L9.75468 17.9998L10.2461 17.9998L10.3266 18.2817C10.5993 19.2363 11.5935 19.9377 12.6769 19.6375C13.4695 19.4178 14.2223 19.1032 14.9223 18.7067C15.9002 18.1529 16.1078 16.9541 15.6254 16.0858L15.4836 15.8306L15.8311 15.4831L16.0865 15.625C16.9547 16.1073 18.1534 15.8998 18.7073 14.922C19.1038 14.222 19.4185 13.4691 19.6382 12.6765C19.9385 11.5931 19.2371 10.5989 18.2825 10.3261L18.0005 10.2455V9.75415L18.2825 9.67358C19.2371 9.40083 19.9385 8.40661 19.6382 7.3232C19.4186 6.53072 19.1039 5.77796 18.7075 5.07804C18.1536 4.10015 16.9548 3.8926 16.0866 4.37495L15.8311 4.5169L15.4836 4.16943L15.6256 3.91394C16.1079 3.04571 15.9004 1.84693 14.9225 1.29307C14.2225 0.896599 13.4696 0.581916 12.677 0.362251ZM12.1692 2.54929L12.2359 2.316C12.8033 2.48073 13.3448 2.70672 13.8529 2.98647L13.7353 3.19814C13.3017 3.97873 13.438 4.95222 14.0694 5.58364L14.4169 5.93111C15.0483 6.56253 16.0218 6.69887 16.8024 6.26521L17.0141 6.14761C17.2938 6.65564 17.5198 7.19709 17.6845 7.76439L17.451 7.8311C16.5924 8.07642 16.0005 8.86119 16.0005 9.75415V10.2455C16.0005 11.1385 16.5924 11.9233 17.451 12.1686L17.6845 12.2353C17.5197 12.8027 17.2937 13.3442 17.014 13.8523L16.8024 13.7348C16.0218 13.3012 15.0483 13.4375 14.4169 14.0689L14.0694 14.4164C13.438 15.0478 13.3017 16.0213 13.7353 16.8019L13.8528 17.0133C13.3447 17.293 12.8032 17.519 12.2358 17.6837L12.1691 17.4504C11.9238 16.5918 11.139 15.9998 10.2461 15.9998H9.75468C8.86172 15.9998 8.07695 16.5918 7.83163 17.4504L7.76503 17.6835C7.19776 17.5188 6.65634 17.2928 6.14835 17.0131L6.26588 16.8015C6.69954 16.021 6.5632 15.0475 5.93178 14.416L5.58431 14.0686C4.9529 13.4372 3.9794 13.3008 3.19881 13.7345L2.98733 13.852C2.70764 13.344 2.4817 12.8026 2.31698 12.2353L2.5504 12.1686C3.409 11.9233 4.00096 11.1385 4.00096 10.2455V9.75415C4.00096 8.86119 3.409 8.07642 2.5504 7.8311L2.31698 7.76441C2.4817 7.19714 2.70764 6.65573 2.98733 6.14773L3.19881 6.26522C3.9794 6.69888 4.9529 6.56253 5.58431 5.93112L5.93178 5.58365C6.5632 4.95223 6.69955 3.97874 6.26588 3.19815L6.14835 2.98659C6.65637 2.70686 7.19781 2.48089 7.76511 2.31615L7.83172 2.5493C8.07704 3.4079 8.86181 3.99985 9.75477 3.99985H10.2462C11.1391 3.99985 11.9239 3.4079 12.1692 2.54929ZM6.14835 2.98659C6.12028 3.00204 6.09231 3.01767 6.06444 3.03345C6.07769 3.02595 6.09238 3.01348 6.10419 2.99745C6.11533 2.98232 6.12046 2.9688 6.12262 2.95997C6.12491 2.95056 6.12432 2.94507 6.12384 2.94287L6.14835 2.98659ZM2.98733 6.14773L2.94352 6.12339C2.94572 6.12386 2.9513 6.12429 2.96071 6.12199C2.96955 6.11983 2.98306 6.1147 2.9982 6.10356C3.01422 6.09175 3.02669 6.07706 3.03419 6.06381C3.01841 6.09168 3.00279 6.11965 2.98733 6.14773ZM2.31698 7.76441C2.308 7.79535 2.2992 7.82636 2.29058 7.85746C2.29467 7.84268 2.29626 7.82335 2.29326 7.80356C2.29042 7.78486 2.28446 7.7716 2.2797 7.76377C2.27463 7.75543 2.2703 7.75195 2.2684 7.75073L2.31698 7.76441ZM2.31698 12.2353L2.26845 12.2492C2.2677 12.2494 2.26736 12.2495 2.26737 12.2495C2.267 12.2497 2.26737 12.2495 2.26737 12.2495C2.26736 12.2495 2.2677 12.2494 2.26845 12.2492C2.27035 12.2479 2.27463 12.2443 2.2797 12.2359C2.28445 12.2281 2.29042 12.2148 2.29326 12.1961C2.29626 12.1763 2.29467 12.157 2.29058 12.1422C2.29919 12.1733 2.308 12.2043 2.31698 12.2353ZM2.98733 13.852C3.00279 13.88 3.01841 13.908 3.03419 13.9359C3.02669 13.9226 3.01422 13.9079 2.99819 13.8961C2.98306 13.885 2.96954 13.8799 2.96071 13.8777C2.9513 13.8754 2.94581 13.876 2.94361 13.8765C2.94315 13.8766 2.94379 13.8764 2.94361 13.8765L2.98733 13.852ZM6.14835 17.0131L6.12401 17.0569C6.12324 17.0583 6.12368 17.0584 6.12401 17.0569C6.12448 17.0547 6.12491 17.0491 6.12261 17.0397C6.12046 17.0309 6.11533 17.0174 6.10418 17.0022C6.09238 16.9862 6.07768 16.9738 6.06444 16.9662C6.0923 16.982 6.12028 16.9977 6.14835 17.0131ZM7.76503 17.6835C7.79597 17.6925 7.82698 17.7013 7.85808 17.7099C7.8433 17.7058 7.82397 17.7043 7.80418 17.7073C7.78548 17.7101 7.77221 17.7161 7.76439 17.7208C7.75605 17.7259 7.75257 17.7302 7.75135 17.7321C7.75051 17.7334 7.75091 17.7336 7.75135 17.7321L7.76503 17.6835ZM12.2358 17.6837L12.2497 17.7323C12.2501 17.7338 12.2505 17.7336 12.2497 17.7323C12.2484 17.7304 12.2448 17.7261 12.2364 17.721C12.2286 17.7162 12.2153 17.7103 12.1966 17.7074C12.1769 17.7044 12.1575 17.706 12.1428 17.7101C12.1738 17.7015 12.2049 17.6927 12.2358 17.6837ZM13.8528 17.0133C13.8809 16.9979 13.9088 16.9822 13.9367 16.9664C13.9235 16.9739 13.9088 16.9864 13.897 17.0024C13.8858 17.0176 13.8807 17.0311 13.8785 17.0399C13.8762 17.0493 13.8768 17.0548 13.8773 17.057C13.8776 17.0585 13.8781 17.0584 13.8773 17.057L13.8528 17.0133ZM17.014 13.8523L17.0578 13.8767C17.0591 13.8775 17.0593 13.877 17.0578 13.8767C17.0556 13.8762 17.05 13.8758 17.0406 13.8781C17.0317 13.8802 17.0182 13.8854 17.0031 13.8965C16.9871 13.9083 16.9746 13.923 16.9671 13.9363C16.9829 13.9084 16.9985 13.8804 17.014 13.8523ZM17.6845 12.2353C17.6935 12.2044 17.7023 12.1733 17.7109 12.1423C17.7068 12.157 17.7052 12.1764 17.7082 12.1962C17.7111 12.2148 17.717 12.2281 17.7218 12.2359C17.7269 12.2443 17.7312 12.2478 17.7331 12.249C17.7344 12.2498 17.7346 12.2494 17.7331 12.249L17.6845 12.2353ZM17.6845 7.76439L17.733 7.75053C17.7311 7.75175 17.7268 7.75541 17.7218 7.76376C17.717 7.77158 17.7111 7.78485 17.7082 7.80354C17.7052 7.82334 17.7068 7.84267 17.7109 7.85744C17.7023 7.82635 17.6935 7.79533 17.6845 7.76439ZM17.0579 6.12327L17.0141 6.14761C16.9986 6.11953 16.983 6.09156 16.9672 6.06369C16.9747 6.07694 16.9872 6.09164 17.0032 6.10344C17.0184 6.11459 17.0319 6.11971 17.0407 6.12187C17.0501 6.12417 17.0557 6.12374 17.0579 6.12327ZM17.0588 6.12281C17.0589 6.12279 17.0589 6.12277 17.0588 6.12281V6.12281ZM13.8529 2.98647L13.8773 2.94266C13.8768 2.94486 13.8764 2.95044 13.8787 2.95985C13.8808 2.96869 13.886 2.9822 13.8971 2.99734C13.9089 3.01336 13.9236 3.02583 13.9368 3.03333C13.909 3.01755 13.881 3.00193 13.8529 2.98647Z" fill="#686868"/>
</svg>
