<svg width="30" height="30" viewBox="0 0 30 30" fill="none" xmlns="http://www.w3.org/2000/svg">
<path fill-rule="evenodd" clip-rule="evenodd" d="M15 27C21.6274 27 27 21.6274 27 15C27 8.37258 21.6274 3 15 3C8.37258 3 3 8.37258 3 15C3 21.6274 8.37258 27 15 27ZM15 30C23.2843 30 30 23.2843 30 15C30 6.71573 23.2843 0 15 0C6.71573 0 0 6.71573 0 15C0 23.2843 6.71573 30 15 30Z" fill="#464A54"/>
<path d="M13.5 9C13.5 8.17157 14.1716 7.5 15 7.5C15.8284 7.5 16.5 8.17157 16.5 9C16.5 9.82843 15.8284 10.5 15 10.5C14.1716 10.5 13.5 9.82843 13.5 9Z" fill="#464A54"/>
<path d="M16.7451 20.6295C16.8153 21.6409 16.0138 22.5 15 22.5C13.9862 22.5 13.1847 21.6409 13.2549 20.6295L13.6634 14.747C13.7122 14.0448 14.2961 13.5 15 13.5C15.7039 13.5 16.2878 14.0448 16.3366 14.747L16.7451 20.6295Z" fill="#464A54"/>
</svg>
