<svg width="191" height="191" viewBox="0 0 191 191" fill="none" xmlns="http://www.w3.org/2000/svg">
<path d="M77.2704 79.2037C77.5661 78.2816 78.2888 77.559 79.2109 77.2632L123.011 63.215C125.335 62.4696 127.529 64.6637 126.784 66.9878L112.736 110.79C112.44 111.712 111.718 112.435 110.796 112.73L66.9956 126.779C64.6715 127.524 62.4773 125.33 63.2227 123.006L77.2704 79.2037Z" fill="#6BC4E3"/>
<path fill-rule="evenodd" clip-rule="evenodd" d="M77.8317 29.6184C79.1812 29.2562 80.1484 28.0508 80.1484 26.6535V3.15115C80.1484 1.30689 78.4973 -0.1035 76.6876 0.251919C36.7761 8.09047 5.71065 40.6 0.0270801 81.2442C-0.219497 83.0075 1.17282 84.5525 2.95329 84.5525H26.146C27.6299 84.5525 28.8835 83.4659 29.1613 82.0083C34.0024 56.6016 53.1104 36.2538 77.8317 29.6184ZM108.021 160.88C106.563 161.157 105.476 162.411 105.476 163.895V187.089C105.476 188.869 107.021 190.261 108.784 190.015C149.433 184.333 181.947 153.262 189.783 113.342C190.138 111.532 188.728 109.882 186.883 109.882H163.383C161.985 109.882 160.78 110.849 160.418 112.199C153.784 136.927 133.432 156.04 108.021 160.88Z" fill="#2646B3"/>
<path fill-rule="evenodd" clip-rule="evenodd" d="M29.6058 112.841C29.2439 111.491 28.0384 110.524 26.6408 110.524H3.14091C1.29691 110.524 -0.113498 112.174 0.24146 113.984C7.73468 152.183 37.8238 182.283 76.0165 189.79C77.8263 190.146 79.4772 188.736 79.4772 186.891V163.388C79.4772 161.991 78.5108 160.786 77.1616 160.423C54.0262 154.208 35.8094 135.982 29.6058 112.841ZM160.863 82.6508C161.141 84.1082 162.395 85.195 163.878 85.195H187.072C188.852 85.195 190.245 83.6493 189.998 81.8859C184.064 39.4899 150.513 5.94736 108.113 0.028469C106.35 -0.217658 104.805 1.17451 104.805 2.9547V26.1474C104.805 27.6317 105.893 28.8856 107.351 29.163C134.392 34.3068 155.706 55.6132 160.863 82.6508Z" fill="#6BC4E3"/>
</svg>
