<svg data-name="메이저멤버스 로고" xmlns="http://www.w3.org/2000/svg" width="174" height="32.751" viewBox="0 0 174 32.751">
    <path data-name="패스 4112" d="M97.882 33.508H93.46l-4.169-16.292h4.462l2.156 9.53H96l2.606-9.53h4.462l2.755 9.53h.085l2.01-9.53h4.462l-4.087 16.293h-4.429l-2.98-9.454h-.086z" transform="translate(-46.303 -8.918)" style="fill:#0038ae"/>
    <path data-name="패스 4113" d="M207.88 28.5h-1.8l-2.794-4.115h-.086v8.931h-3.99V17.045h3.752l4.064 6.082 3.859-6.082h3.965v16.27h-4.169v-8.931h-.1z" transform="translate(-103.303 -8.83)" style="fill:#0038ae"/>
    <path data-name="패스 4114" d="M346.6 22.585a5.592 5.592 0 0 0-5.573-5.579h-8.18V33.3h4.294v-5.137h2.293l2.322 5.129h4.589l-2.636-5.823a5.593 5.593 0 0 0 2.891-4.884zm-9.453-1.985h3.435a1.988 1.988 0 0 1 0 3.975h-3.435z" transform="translate(-172.604 -8.81)" style="fill:#0038ae"/>
    <path data-name="패스 4115" d="M277.074 29.278v4.052H272.8V17.065h4.275v6.186h.092l4.909-6.186h5.1l-5.557 6.771 5.593 9.494h-5.081l-3.468-5.966z" transform="translate(-141.463 -8.841)" style="fill:#0038ae"/>
    <path data-name="패스 4116" d="M316.719 26.706H310.3v3.036h7.327V33.3h-11.64V17.006h11.4v3.564H310.3v2.67h6.423z" transform="translate(-158.671 -8.81)" style="fill:#0038ae"/>
    <path data-name="패스 4117" d="M150.831 33.322h-4.541l-.868-2.658h-5.589l-.867 2.658h-4.306l5.868-16.287h4.433zm-8.179-11.189h-.1l-1.623 5.1h3.371z" transform="translate(-69.83 -8.825)" style="fill:#0038ae"/>
    <path data-name="패스 4118" d="M252.079 33.322h-4.541l-.868-2.658h-5.588l-.868 2.658h-4.306l5.868-16.287h4.433zM243.9 22.133h-.1l-1.622 5.1h3.366z" transform="translate(-122.333 -8.825)" style="fill:#0038ae"/>
    <path data-name="패스 4119" d="m169.2 27.491-5.364-10.463h4.464l3.05 6.064h.081l2.982-6.065h4.446l-5.339 10.462v5.816h-4.32z" transform="translate(-84.959 -8.821)" style="fill:#0038ae"/>
    <path data-name="패스 4121" d="m32.209 23.472-5.545 2.247a1.719 1.719 0 0 0-.946.947l-2.244 5.551a1 1 0 0 0 1.312 1.314l5.545-2.247a1.713 1.713 0 0 0 .946-.947l2.244-5.551a1 1 0 0 0-1.312-1.314z" transform="translate(-12.138 -12.126)" style="fill:#3dbee3"/>
    <path data-name="패스 4122" d="M49.207 14.306h3.05a.348.348 0 0 0 .345-.4A16.557 16.557 0 0 0 38.711 0a.348.348 0 0 0-.4.345v3.062a1.376 1.376 0 0 0 1.032 1.326 12.087 12.087 0 0 1 8.529 8.534 1.383 1.383 0 0 0 1.335 1.039z" transform="translate(-19.888)" style="fill:#3dbee3"/>
    <path data-name="패스 4123" d="M47.875 39.351a12.087 12.087 0 0 1-8.523 8.533 1.384 1.384 0 0 0-1.037 1.334v3.052a.348.348 0 0 0 .4.345A16.557 16.557 0 0 0 52.6 38.709a.349.349 0 0 0-.345-.4h-3.05a1.384 1.384 0 0 0-1.33 1.042z" transform="translate(-19.888 -19.868)" style="fill:#0038ae"/>
    <path data-name="패스 4124" d="M3.4 38.313H.348a.348.348 0 0 0-.344.4A16.556 16.556 0 0 0 13.9 52.615a.348.348 0 0 0 .4-.345v-3.052a1.385 1.385 0 0 0-1.037-1.334 12.087 12.087 0 0 1-8.523-8.533 1.384 1.384 0 0 0-1.34-1.038z" transform="translate(0 -19.868)" style="fill:#3dbee3"/>
    <path data-name="패스 4125" d="M4.731 13.267a12.087 12.087 0 0 1 8.523-8.533A1.384 1.384 0 0 0 14.291 3.4V.349A.348.348 0 0 0 13.9 0 16.556 16.556 0 0 0 0 13.909a.348.348 0 0 0 .344.4H3.4a1.383 1.383 0 0 0 1.331-1.042z" style="fill:#0038ae"/>
</svg>
